<?xml version="1.0" encoding="utf-8"?>
<!-- Generator: Adobe Illustrator 26.5.0, SVG Export Plug-In . SVG Version: 6.00 Build 0)  -->
<svg version="1.1" id="Layer_1" xmlns="http://www.w3.org/2000/svg" xmlns:xlink="http://www.w3.org/1999/xlink" x="0px" y="0px"
	 viewBox="0 0 512 512" style="enable-background:new 0 0 512 512;" xml:space="preserve">
<style type="text/css">
	.st0{fill:#ED5B3A;}
</style>
<path class="st0" d="M361.7,240.2l-78.4-59.9l-155.4,122c-12.1-9-18.9-20-19.7-31.2c-0.9-12.3,5.9-24.7,19-35.1
	c20.5-16.3,42-32.5,62.7-48.3c9.7-7.3,19.7-14.9,29.5-22.4c2.5-1.9,4.8-3.9,6.8-5.4c0.7-0.6,1.4-1.1,1.9-1.6l12.4-10l-74.6-59
	l-8.1,6.4c-4.4,3.5-8.9,6.9-13.3,10.5c-9.6,7.6-19.6,15.4-29.4,23c-7.3,5.6-15,11.3-22.3,16.8c-15.5,11.6-31.5,23.6-46.2,36.3
	C18.3,207,3.1,238.4,4.1,270.8C5.2,306,24.9,340.4,60,367.4c39,30.2,78.9,60.7,117.6,90.2c15.3,11.7,30.8,23.4,46.1,35.2
	c3.7,2.9,7.4,5.6,10.8,8c1.4,1,2.7,2,3.9,2.9l7.8,5.7l78.7-58.9l-119.5-91.1L361.7,240.2z"/>
<path class="st0" d="M460.2,153.5c-43.5-34.1-88.3-68.2-131.6-101.4c-17.2-13-34.4-26.2-51.4-39.3c-2-1.6-4-2.6-6.1-3.5
	c-0.9-0.5-1.9-1-3.2-1.6l-7.6-3.9l-6.7,5.3c-4.2,3.3-8.3,6.7-12.4,10c-9.1,7.4-18.5,15.1-28,22.4l-0.3,0.2
	c-7.6,5.9-13.6,10.5-13.6,19s6.3,13.4,13.6,19c49.7,38.1,104.3,79.8,166.8,127.5c11.1,8.6,24.5,21.9,24.6,36.9
	c0.1,14.8-12.6,27.9-23.4,36.4c-16.3,12.8-34.2,26.6-56.2,43c-9.1,6.9-18.2,13.3-28,20.3c-4.3,3-8.7,6.1-13,9.2l-14.2,10.2l81,60.4
	l8-6.9c2.3-2,4.5-4.1,6.7-6.1c4.6-4.4,9.1-8.5,13.9-12.2c10.8-8.5,22-16.9,32.8-25.2c16.3-12.4,33.1-25.2,49.3-38.3
	c30.4-24.5,47-56.9,46.7-91.4C507.7,209.4,490.7,177.4,460.2,153.5z"/>
</svg>
