<?xml version="1.0" encoding="utf-8"?>
<!-- Generator: Adobe Illustrator 27.9.0, SVG Export Plug-In . SVG Version: 6.00 Build 0)  -->
<svg version="1.1" id="Layer_1" xmlns="http://www.w3.org/2000/svg" xmlns:xlink="http://www.w3.org/1999/xlink" x="0px" y="0px"
	 viewBox="0 0 512 512" style="enable-background:new 0 0 512 512;" xml:space="preserve">
<g>
	<path d="M231.9,349.6c-25.5,21.5-48.9,41.1-73.6,61.9C84.2,354.6,18.5,291,33.7,187.8C48,89.7,142.1,13.9,254.6,13.3
		c112.9-0.6,208.9,73.5,223.5,171.6c10,67.3-10.1,125.7-63.1,173.6c-52,46.9-105.8,92.1-161.3,140.2c-12.4-12.6-27.8-28.3-45.3-46.1
		c4.4-4.5,10.2-11,16.7-17c45.4-41.8,91.7-82.8,136.2-125.4c45.7-43.7,58.9-95.1,31.7-151c-25.7-52.7-72.9-79.9-136.6-80.9
		c-73.9-1.2-134.7,46.8-147.7,114.7c-12.1,63,29.7,126.6,97.5,148.5C214,344.1,221.9,346.5,231.9,349.6z"/>
	<path d="M255.9,132.4c50.2,0,90.2,35.6,90.5,80.6c0.3,44.6-40,82.1-89,83c-49.7,0.8-92.1-37.4-91.8-82.8
		C165.9,168,205.7,132.4,255.9,132.4z"/>
</g>
</svg>
